<svg width="47" height="47" viewBox="0 0 47 47" fill="none" xmlns="http://www.w3.org/2000/svg">
<path d="M47 23.4609C47.026 36.4426 36.5208 46.987 23.5391 47C10.5574 47.013 0.026116 36.5208 4.84081e-05 23.5391C-0.0260192 10.5704 10.4792 0.0260645 23.4609 -3.14365e-06C23.4739 -3.14365e-06 23.487 -3.14365e-06 23.5 -3.14365e-06C36.4686 -0.013037 46.9869 10.4922 47 23.4609Z" fill="#E60000"/>
<path d="M23.6954 36.6121C17.2437 36.6382 10.5183 31.1249 10.4922 22.2749C10.6356 16.527 13.2423 11.131 17.6608 7.44241C21.6752 4.13182 26.6802 2.24191 31.8807 2.07247C32.4542 2.05944 33.0276 2.11158 33.5751 2.26798C29.1566 3.24552 25.9763 7.1296 25.9112 11.6523C25.9112 11.7827 25.9242 11.913 25.9372 12.0434C33.0928 13.7899 36.3382 18.1041 36.3643 24.0736C36.3513 31.0206 30.7076 36.6382 23.7606 36.6252C23.7345 36.6252 23.7215 36.6252 23.6954 36.6252" fill="#ffffff"/>
</svg>
